Coordinates
version=1
nRows=5
nColumns=40
inDegrees=yes

Units are S.I. units (second, meters, Newtons, ...)
Angles are in degrees.

endheader
time	pelvis_tilt	pelvis_list	pelvis_rotation	pelvis_tx	pelvis_ty	pelvis_tz	hip_flexion_r	hip_adduction_r	hip_rotation_r	knee_angle_r	knee_angle_r_beta	ankle_angle_r	subtalar_angle_r	mtp_angle_r	hip_flexion_l	hip_adduction_l	hip_rotation_l	knee_angle_l	knee_angle_l_beta	ankle_angle_l	subtalar_angle_l	mtp_angle_l	lumbar_extension	lumbar_bending	lumbar_rotation	arm_flex_r	arm_add_r	arm_rot_r	elbow_flex_r	pro_sup_r	wrist_flex_r	wrist_dev_r	arm_flex_l	arm_add_l	arm_rot_l	elbow_flex_l	pro_sup_l	wrist_flex_l	wrist_dev_l
     27.23000000	     -5.31482972	     -6.76632149	      2.30165969	      1.03999467	      0.91443969	      0.45944152	     -2.73552060	      6.54152601	    -16.64802629	      8.25214228	      8.25214228	     17.77498506	      5.26960124	     -2.03969774	     34.17591169	     -8.89029770	     -2.55954009	     24.06206225	     24.06206225	      4.11868523	    -14.07173099	      9.06585578	     -7.52849294	      6.49587046	      3.78347484	     43.28842616	    -14.26861512	     -2.12834074	     78.25056406	     44.75913656	      0.00000000	      0.00000000	    -11.80862099	     -7.61745862	      7.54094060	     22.00802051	     44.50017074	      0.00000000	      0.00000000
     27.24200000	     -5.28009779	     -6.68496604	      2.31143541	      1.04165129	      0.91329550	      0.45776283	     -3.05081398	      6.24862725	    -16.44552446	      8.96120480	      8.96120480	     18.30104706	      4.91862619	     -2.09309726	     33.82423008	     -8.70297155	     -2.56480933	     24.87711757	     24.87711757	      3.65714955	    -14.72539617	      8.87078451	     -7.38799035	      6.31536969	      3.55485652	     43.08977445	    -14.04474456	     -2.22612515	     78.79081984	     44.74909962	      0.00000000	      0.00000000	    -11.90210362	     -7.67666049	      7.57020000	     21.83655952	     44.50508587	      0.00000000	      0.00000000
     27.25400000	     -5.21241086	     -6.53230952	      2.33286798	      1.04345578	      0.91253459	      0.45591742	     -3.54470135	      5.90488651	    -16.30789371	      9.39053413	      9.39053413	     18.63148327	      4.70475599	     -2.15132066	     33.39470774	     -8.45083185	     -2.56241491	     25.63228111	     25.63228111	      3.50740931	    -15.10453223	      8.71913682	     -7.23362449	      6.07171532	      3.37736919	     42.60509679	    -13.93967886	     -2.25154815	     78.93004280	     44.74521391	      0.00000000	      0.00000000	    -11.88162575	     -7.75721396	      7.56884235	     21.78015072	     44.51031390	      0.00000000	      0.00000000
     27.26600000	     -5.27264553	     -6.39722995	      2.32753377	      1.04487428	      0.91182283	      0.45400564	     -3.39926300	      5.44724470	    -15.95511480	     10.76566065	     10.76566065	     19.34548890	      3.90042881	     -1.49179026	     33.08017509	     -8.13682860	     -2.26211461	     26.20366441	     26.20366441	      3.00124423	    -15.97660147	      7.71298815	     -7.11800152	      5.86048436	      3.93459095	     41.16236051	    -14.28730228	     -3.54811481	     81.39443377	     44.73537192	      0.00000000	      0.00000000	    -11.17360283	     -7.86270474	      7.57071328	     21.33684040	     44.60065798	      0.00000000	      0.00000000
     27.27800000	     -5.20979217	     -6.29056835	      2.41203892	      1.04645333	      0.91182712	      0.45182747	     -3.84505602	      5.12194451	    -15.90986571	     11.19708130	     11.19708130	     19.32641507	      3.77030911	     -1.51751997	     32.64909156	     -7.88057108	     -2.10819826	     26.78008463	     26.78008463	      3.25176590	    -16.14010694	      7.51189432	     -7.05553729	      5.74033570	      3.61892614	     40.50776738	    -14.17248268	     -3.50444581	     81.29836427	     44.73557005	      0.00000000	      0.00000000	    -10.85916487	     -7.88185579	      7.57737552	     21.40845237	     44.60827064	      0.00000000	      0.00000000
